<?xml version="1.0" encoding="UTF-8" standalone="no"?>
<!-- Created with Inkscape (http://www.inkscape.org/) -->

<svg
   width="256mm"
   height="256mm"
   viewBox="0 0 256 256"
   version="1.1"
   id="svg5"
   xml:space="preserve"
   inkscape:version="1.2.2 (732a01da63, 2022-12-09, custom)"
   sodipodi:docname="logo.svg"
   inkscape:export-filename="../32f55938/logo.png"
   inkscape:export-xdpi="96"
   inkscape:export-ydpi="96"
   xmlns:inkscape="http://www.inkscape.org/namespaces/inkscape"
   xmlns:sodipodi="http://sodipodi.sourceforge.net/DTD/sodipodi-0.dtd"
   xmlns="http://www.w3.org/2000/svg"
   xmlns:svg="http://www.w3.org/2000/svg"><sodipodi:namedview
     id="namedview7"
     pagecolor="#ffffff"
     bordercolor="#000000"
     borderopacity="0.25"
     inkscape:showpageshadow="2"
     inkscape:pageopacity="0.0"
     inkscape:pagecheckerboard="0"
     inkscape:deskcolor="#d1d1d1"
     inkscape:document-units="mm"
     showgrid="false"
     inkscape:zoom="1.2938725"
     inkscape:cx="337.35937"
     inkscape:cy="549.89963"
     inkscape:window-width="3840"
     inkscape:window-height="2096"
     inkscape:window-x="0"
     inkscape:window-y="27"
     inkscape:window-maximized="1"
     inkscape:current-layer="layer1" /><defs
     id="defs2" /><g
     inkscape:label="Layer 1"
     inkscape:groupmode="layer"
     id="layer1"><path
       style="opacity:1;fill:#36483b;fill-opacity:1;stroke-width:1.18945;stroke-linecap:round;stroke-linejoin:round"
       d="M 124.23742,23.480794 108.26349,41.416287 90.834243,80.19844 52.750695,83.926008 38.902612,106.56573 36.384137,117.4863 6.5430256,133.16479 l 11.8352854,57.69799 32.349167,36.24927 56.604072,-8.90504 14.14531,-28.58926 16.76211,33.9466 47.25636,-5.68119 1.35154,-20.14545 48.20622,8.45681 13.498,-13.68971 -30.37707,-67.91756 -26.05793,-29.609526 -43.6708,-12.418998 2.87512,-55.836171 z"
       id="path9096"
       inkscape:export-filename="../32f55938/logo.png"
       inkscape:export-xdpi="96"
       inkscape:export-ydpi="96" /><path
       style="opacity:1;fill:#435a4a;fill-opacity:1;stroke-width:1.15121;stroke-linecap:round;stroke-linejoin:round"
       d="M 124.34382,26.754024 108.88343,44.112916 92.014509,81.648277 55.155293,85.256009 41.752407,107.1679 l -2.43751,10.56948 -28.881761,15.17445 11.454797,55.84308 31.309187,35.08391 54.78433,-8.61876 13.69056,-27.67015 16.22323,32.85526 45.73713,-5.49854 1.30809,-19.49781 46.65646,8.18494 13.06406,-13.24961 -29.40049,-65.7341 -25.2202,-28.657622 -42.26685,-12.019745 2.78269,-54.041116 z"
       id="path9094" /><path
       style="opacity:1;fill:#6d9278;fill-opacity:1;stroke-width:1.11155;stroke-linecap:round;stroke-linejoin:round"
       d="m 124.45418,30.14893 -14.92777,16.760857 -16.287762,36.242222 -35.589371,3.483441 -12.94114,21.157 -2.353536,10.20535 -27.886747,14.65167 11.060164,53.91922 30.230547,33.87522 52.896945,-8.32183 13.2189,-26.71688 15.66432,31.72336 44.16143,-5.30911 1.26303,-18.82608 45.04909,7.90296 12.61399,-12.79316 -28.38761,-63.46948 -24.35133,-27.670332 -40.81071,-11.605644 2.68682,-52.179334 z"
       id="path8366" /><path
       style="opacity:1;fill:#799b83;fill-opacity:1;stroke-width:1.068;stroke-linecap:round;stroke-linejoin:round"
       d="m 124.57536,33.876935 -14.34288,16.104144 -15.649584,34.822204 -34.194932,3.346955 -12.434089,20.328042 -2.261322,9.80549 -26.794106,14.0776 10.626811,51.80659 29.046074,32.54795 50.824378,-7.99577 12.70096,-25.67008 15.05057,30.4804 42.43113,-5.1011 1.21354,-18.08845 43.28401,7.59332 12.11976,-12.29191 -27.27535,-60.98266 -23.39721,-26.586178 -39.21169,-11.150916 2.58154,-50.134879 z"
       id="path8140" /><path
       style="fill:#000000;stroke-width:0.880505;stroke-linecap:round;stroke-linejoin:round"
       d="m 224.07592,178.54281 -10.08176,-0.648 -7.86003,-4.2257 -4.67683,-18.88097 -9.71057,-27.25514 -25.0445,-13.12664 -16.68202,-3.05639 -15.67017,-4.95187 -3.34705,4.16035 17.70174,5.91804 23.17717,19.71148 8.50324,1.61833 12.1646,29.05208 1.26775,8.7696 -0.21867,7.19893 1.35475,5.76902 8.65039,-0.29258 -0.75933,-2.93043 15.37602,1.38512 5.85527,-3.06655 z"
       id="path356"
       sodipodi:nodetypes="ccccccccccccccccccccc" /><path
       style="fill:#303030;fill-opacity:1;stroke-width:0.880505;stroke-linecap:round;stroke-linejoin:round"
       d="m 132.67651,108.47828 -8.62535,9.56711 -1.95449,7.87592 1.64158,6.44006 12.28531,5.34595 7.44712,0.0308 14.22462,4.95093 -15.04773,28.63933 -4.07843,13.10291 -0.0821,15.41857 9.81211,3.19553 9.27553,-1.3502 0.12482,-5.03812 -2.09869,-1.52917 -3.5311,-1.83971 -1.60921,-6.45437 12.46405,-24.17624 12.76473,-16.20067 -3.80738,-10.26896 -21.50366,-21.79165 z"
       id="path358" /><path
       style="fill:#1f1f1f;fill-opacity:1;stroke-width:0.880505;stroke-linecap:round;stroke-linejoin:round"
       d="m 134.35004,106.3981 -14.96586,-8.762825 -9.11612,-1.079024 -14.55485,5.555699 -9.598324,9.21958 17.534954,3.90132 20.08841,17.12852 -1.64158,-6.44006 1.95449,-7.87592 8.62535,-9.56711 z"
       id="path968" /><path
       style="fill:#1f1f1f;fill-opacity:1;stroke-width:0.880505;stroke-linecap:round;stroke-linejoin:round"
       d="m 122.91915,100.12414 -2.01223,-6.329887 5.41632,-6.406183 4.06873,-24.401711 2.28454,-11.195808 -5.47226,0.760044 -3.90809,-2.569515 -4.53111,15.79965 -3.72258,16.865603 -7.68485,8.1023 -11.6353,3.79088 -9.607434,16.792017 9.598324,-9.21958 14.55485,-5.555699 4.55806,0.539507 4.55806,0.539517 z"
       id="path1510"
       sodipodi:nodetypes="ccccccccccccccccc" /><path
       style="opacity:1;fill:#474747;fill-opacity:1;stroke-width:0.880505;stroke-linecap:round;stroke-linejoin:round"
       d="m 86.114886,111.33153 -9.2698,5.97855 2.694107,3.76258 -1.273922,3.33181 -16.106767,2.28835 -14.374999,4.31814 h -3.782793 -7.335335 l -1.043308,12.37513 5.823718,11.08356 -6.21227,0.22177 0.554859,7.3549 9.017924,15.06936 5.49822,0.32922 7.350125,7.80936 -2.846959,12.58876 7.399732,4.16244 13.537061,1.03996 9.011609,-2.27101 4.515525,-3.97555 3.101299,-4.51422 -2.737151,-12.96134 -4.728388,-3.77335 -1.107392,-8.75637 9.792415,-5.15183 23.152194,0.75272 8.07429,-6.63262 1.48496,-7.36679 -8.67021,-21.23884 -3.93958,-3.35911 -10.04421,-8.56426 z"
       id="path1512" /><path
       style="fill:#222222;fill-opacity:1;stroke-width:0.880505;stroke-linecap:round;stroke-linejoin:round"
       d="m 92.372912,192.28464 -1.368575,-6.48067 -1.368576,-6.48067 -4.728388,-3.77335 -1.107392,-8.75637 9.792415,-5.15183 23.152194,0.75272 8.81676,-10.31602 0.74249,-3.68339 -2.45452,14.17728 -9.46141,14.16644 z"
       id="path1568"
       sodipodi:nodetypes="cccccccccccc" /><path
       style="opacity:1;fill:#896e70;fill-opacity:1;stroke-width:0.880505;stroke-linecap:round;stroke-linejoin:round"
       d="m 74.246136,153.71109 -0.0066,3.47738 -2.410416,2.75519 -3.287418,1.46553 -2.763121,-0.20989 -0.422865,1.53372 -3.970453,-0.67069 -0.126527,-1.53113 -0.589856,-1.20027 0.410943,-2.14246 -0.174023,-0.83242 1.172655,-1.71249 0.24185,-1.9633 1.626215,-0.50274 1.371024,-0.99351 4.868395,0.92518 z"
       id="path1617" /><path
       style="opacity:1;fill:#6a5657;fill-opacity:1;stroke-width:0.880505;stroke-linecap:round;stroke-linejoin:round"
       d="m 74.23954,157.18847 -0.959841,-2.00788 -2.389179,1.40909 -1.900267,-1.90529 -3.481327,0.0603 -0.743788,2.21387 -0.09229,0.6956 1.153148,1.13714 -0.0474,2.40805 2.763121,0.20989 3.287418,-1.46554 z"
       id="path3131" /><path
       style="opacity:0.634073;fill:#000000;fill-opacity:1;stroke-width:0.880505;stroke-linecap:round;stroke-linejoin:round"
       d="m 70.185943,152.10919 5.329027,-4.16123 2.599989,-7.27808 0.248998,-7.32209 -1.664287,-4.50586 3.552848,-10.24919 7.673298,-3.48835 10.395396,2.56619 4.468368,3.75577 -6.386847,13.49888 -6.324172,7.37496 -0.644805,8.88382 -12.660183,10.60608 -8.231859,-0.38088 3.287418,-1.46554 2.410408,-2.7552 0.0066,-3.47738 z"
       id="path3619" /><path
       style="opacity:1;fill:#d1b5b7;fill-opacity:1;stroke-width:0.880505;stroke-linecap:round;stroke-linejoin:round"
       d="m 86.114886,111.33153 3.395518,-5.93474 -3.195649,-0.95598 -1.162093,-5.789701 -1.951449,-0.600147 -1.496802,0.21074 -1.904612,-0.696537 -1.737011,0.26897 -0.543605,-1.277884 -2.65037,1.267944 -2.846885,0.498567 -5.2744,3.722018 -2.685541,2.78093 -0.03941,1.5111 4.792909,0.49576 4.563178,0.25551 -2.542921,3.21216 -1.719269,3.21712 1.21823,1.33858 3.853299,-0.39714 4.082264,-1.58918 1.911776,2.2883 z"
       id="path3621" /><path
       style="opacity:1;fill:#000000;fill-opacity:1;stroke-width:0.880505;stroke-linecap:round;stroke-linejoin:round"
       d="m 73.500155,99.519493 -2.867908,2.166747 -1.33728,0.48858 -0.753253,-1.45713 0.262478,-1.198447 2.371074,-0.599014 0.846662,-0.597467 1.423442,-0.24928 z"
       id="path5948" /><path
       style="opacity:1;fill:#000000;fill-opacity:1;stroke-width:0.880505;stroke-linecap:round;stroke-linejoin:round"
       d="m 65.404757,103.43524 -0.982579,-0.66427 -2.892938,0.99079 -1.141277,3.97712 1.500198,11.19635 4.719179,5.06738 9.861783,0.65705 2.433113,-1.9211 0.636957,-1.6659 -2.694107,-3.76258 3.336958,-2.15216 -1.911776,-2.2883 -4.082264,1.58918 -3.853299,0.39714 -1.21823,-1.33858 1.719269,-3.21712 2.542921,-3.21216 -9.356087,-0.75127 0.03941,-1.5111 z"
       id="path6112" /><path
       style="opacity:1;fill:#d1b5b7;fill-opacity:1;stroke-width:0.880505;stroke-linecap:round;stroke-linejoin:round"
       d="m 129.94038,52.170573 0.67187,-3.450802 1.53858,-2.104491 -0.20213,-1.23919 -2.08247,1.172236 -1.53127,2.475109 -1.22176,-1.23523 0.62026,-3.076301 1.63585,-1.387937 1.84329,-0.04433 -0.45556,-1.407454 1.91947,-0.0089 -1.33912,-1.318264 1.33912,-1.062722 -0.6228,-0.624734 -4.50574,0.15411 -1.83646,1.437129 -1.18981,3.222748 -1.60255,1.173508 0.37701,5.135987 3.90809,2.569515 z"
       id="path6114" /><path
       style="opacity:1;fill:#000000;fill-opacity:1;stroke-width:1.068;stroke-linecap:round;stroke-linejoin:round"
       d="m 76.766489,89.726991 -2.965714,0.497517 2.281621,0.596363 1.49403,0.38341 0.228651,-1.612757 z"
       id="path8196"
       sodipodi:nodetypes="cccccc" /><path
       style="opacity:0.525165;fill:#ffffff;fill-opacity:1;stroke-width:1.068;stroke-linecap:round;stroke-linejoin:round"
       d="m 77.805077,89.591522 h 78.014413 l 5.64927,1.641449 -83.892336,-0.02869 z"
       id="path8252"
       sodipodi:nodetypes="ccccc" /><path
       style="opacity:1;fill:#000000;fill-opacity:1;stroke-width:1.068;stroke-linecap:round;stroke-linejoin:round"
       d="m 135.74557,122.98302 -2.96571,0.49752 2.28162,0.59636 1.49403,0.38341 0.22865,-1.61276 z"
       id="path8362"
       sodipodi:nodetypes="cccccc" /><path
       style="opacity:0.525165;fill:#ffffff;fill-opacity:1;stroke-width:1.068;stroke-linecap:round;stroke-linejoin:round"
       d="m 136.78416,122.84755 70.69222,0.17135 1.44395,1.64076 -72.36482,-0.19936 z"
       id="path8364"
       sodipodi:nodetypes="ccccc" /></g></svg>
